#!OML:ASF H:\Not Pregnant\Project 1\Capture day 1\Session 1\non-pregnant.ASF
:FULLY-SPECIFIED
:DEGREES
4670
root 5.99352 12.0325 9.10213 115.149 4.39436 -7.15645
lowerback 35.9032 -1.98413 8.96594
upperback -2.6166 -0.270395 -6.79084
thorax -22.3255 -1.83349 -12.9759
lowerneck 9.97775 -11.8552 -29.6001
upperneck -4.78297 -18.5318 41.5236
head 4.92066 -11.0718 19.6151
rclavicle -3.69739e-014 4.01545e-014
rhumerus 111.611 -36.1537 -72.2713
rradius 24.2551
rwrist 31.8188
rhand -30.5369 -10.5472
rfingers 7.12502
rthumb -3.83592 319.508
lclavicle -3.69739e-014 4.01545e-014
lhumerus 67.2774 43.8345 -2.67957
lradius 38.1963
lwrist 43.6963
lhand -44.3229 -15.8585
lfingers 7.12502
lthumb -17.132 13.4061
rfemur -93.7556 8.61901 32.2543
rtibia 34.7118
rfoot -45.5905 7.51314
rtoes -20.4111
lfemur -100.088 3.92687 -9.90364
ltibia 44.877
lfoot -43.3734 22.6959
ltoes -40.0061
4671
root 5.99686 12.038 9.10899 115.042 4.41949 -7.10742
lowerback 35.6993 -1.96176 9.00714
upperback -2.58342 -0.231944 -6.76731
thorax -22.1709 -1.80615 -12.9795
lowerneck 10.0026 -11.8818 -29.5413
upperneck -4.94839 -18.54 41.5856
head 4.87898 -11.0913 19.63
rclavicle -3.10104e-014 4.09496e-014
rhumerus 111.125 -36.1231 -71.9216
rradius 24.2914
rwrist 31.6669
rhand -30.7541 -10.6379
rfingers 7.12502
rthumb -4.04568 319.421
lclavicle -3.10104e-014 4.09496e-014
lhumerus 67.4135 43.4927 -2.52347
lradius 38.2281
lwrist 43.6395
lhand -44.3919 -16.0343
lfingers 7.12502
lthumb -17.1984 13.2246
rfemur -93.6324 8.54241 32.2882
rtibia 34.7107
rfoot -45.4996 7.56312
rtoes -20.4418
lfemur -99.994 3.86904 -9.88523
ltibia 44.9261
lfoot -43.1548 22.7219
ltoes -40.283
4672
root 6.00073 12.043 9.11555 114.947 4.45504 -7.04533
lowerback 35.4647 -1.9443 9.07263
upperback -2.54957 -0.191589 -6.74285
thorax -22.0005 -1.77958 -12.9961
lowerneck 9.96433 -11.8955 -29.5484
upperneck -5.02702 -18.5467 41.7233
head 4.89655 -11.1077 19.7048
rclavicle 3.1408e-014 -5.20816e-014
rhumerus 110.608 -36.1002 -71.5403
rradius 24.3316
rwrist 31.4729
rhand -31.0023 -10.7376
rfingers 7.12502
rthumb -4.28537 319.326
lclavicle 3.1408e-014 -5.20816e-014
lhumerus 67.541 43.1407 -2.39117
lradius 38.2575
lwrist 43.6017
lhand -44.4628 -16.2139
lfingers 7.12502
lthumb -17.2667 13.039
rfemur -93.5219 8.45717 32.3345
rtibia 34.7092
rfoot -45.4008 7.63505
rtoes -20.4743
lfemur -99.9199 3.80515 -9.8481
ltibia 44.9859
lfoot -42.9458 22.6948
ltoes -40.4946
4673
root 6.00414 12.0488 9.12383 114.826 4.49725 -6.98495
lowerback 35.2584 -1.92353 9.12951
upperback -2.51349 -0.14842 -6.71576
thorax -21.8391 -1.751 -13.0062
lowerneck 9.8584 -11.9007 -29.6158
upperneck -5.01851 -18.5565 41.9274
head 4.97419 -11.1222 19.8318
rclavicle -1.82882e-014 1.66979e-014
rhumerus 110.071 -36.0756 -71.1433
rradius 24.3711
rwrist 31.265
rhand -31.2633 -10.8475
rfingers 7.12502
rthumb -4.53738 319.221
lclavicle -1.82882e-014 1.66979e-014
lhumerus 67.6477 42.78 -2.29471
lradius 38.2891
lwrist 43.5862
lhand -44.5407 -16.3915
lfingers 7.12502
lthumb -17.3417 12.8548
rfemur -93.3758 8.37049 32.3915
rtibia 34.7046
rfoot -45.3043 7.70902
rtoes -20.5417
lfemur -99.8164 3.74631 -9.80419
ltibia 45.0534
lfoot -42.7606 22.6063
ltoes -40.6391
4674
root 6.00731 12.0546 9.13304 114.69 4.54239 -6.9236
lowerback 35.0603 -1.9023 9.18189
upperback -2.47296 -0.105863 -6.68653
thorax -21.6755 -1.72126 -13.0102
lowerneck 9.69777 -11.9025 -29.729
upperneck -4.93433 -18.5742 42.1722
head 5.10181 -11.1366 19.9929
rclavicle 2.22639e-014 -8.74653e-015
rhumerus 109.528 -36.0426 -70.7398
rradius 24.4025
rwrist 31.0551
rhand -31.5279 -10.9623
rfingers 7.12502
rthumb -4.79287 319.112
lclavicle 2.22639e-014 -8.74653e-015
lhumerus 67.7706 42.4153 -2.18004
lradius 38.3117
lwrist 43.5489
lhand -44.6198 -16.565
lfingers 7.12502
lthumb -17.4178 12.6746
rfemur -93.2112 8.27955 32.4546
rtibia 34.7026
rfoot -45.2054 7.80023
rtoes -20.612
lfemur -99.6975 3.68754 -9.75109
ltibia 45.1314
lfoot -42.61 22.435
ltoes -40.6895
